# xmcd CD database file
#
# Track frame offsets:
#	150
#	23763
#	56207
#	69970
#	110092
#	138890
#	165255
#	195388
#	208134
#
# Disc length: 3162 seconds
#
# Revision: 0
# Processed by: cddbd v1.5.1PL0 Copyright (c) Steve Scherf et al.
# Submitted via: CDex 1.50
#
DISCID=780c5809
DTITLE=Chelate Compound - This Cut-Glass Moment
DYEAR=1900
DGENRE=Jazz
TTITLE0=Seao Of Glass
TTITLE1=A Woman Walks At Midnight (Up Albion Street)
TTITLE2=Dreaming and Memory
TTITLE3=Bruised By Light
TTITLE4=What Colour Are Your Eyes
TTITLE5=Empty Hours
TTITLE6=18th Hundred Love Song
TTITLE7=High Cold Country Part One
TTITLE8=High Cold Country Part Two (Banana Fish On Alameda)
EXTD=
EXTT0=
EXTT1=
EXTT2=
EXTT3=
EXTT4=
EXTT5=
EXTT6=
EXTT7=
EXTT8=
PLAYORDER=
